# xmcd
#
# Track frame offsets: 
#        150
#        9361
#        28819
#        48232
#        61334
#        76714
#        94147
#        110682
#        125695
#        141639
#        154295
#        171735
#
# Disc length: 2496 seconds
#
# Revision: 0
# Processed by: cddbd v1.5.2PL0 Copyright (c) Steve Scherf et al.
# Submitted via: ExactAudioCopyFreeDBPlugin 1.0
#
DISCID=a709be0c
DTITLE=Carolyn Mark - The Queen of Vancouver Island
DYEAR=2012
DGENRE=Alternative
TTITLE0=Poor Farmers
TTITLE1=The Queen of Vancouver Island
TTITLE2=Baby Goats
TTITLE3=Not Talk
TTITLE4=Best Friend
TTITLE5=Flaming Star
TTITLE6=Nobody('s Perfect)
TTITLE7=Mellie's Book
TTITLE8=Not Like The Movies
TTITLE9=The Cereal is the Prize
TTITLE10=Old Whores
TTITLE11=You're not a Whore (if no one's paying)
EXTD=
EXTT0=
EXTT1=
EXTT2=
EXTT3=
EXTT4=
EXTT5=
EXTT6=
EXTT7=
EXTT8=
EXTT9=
EXTT10=
EXTT11=
PLAYORDER=
